<svg width="24" height="24" viewBox="0 0 24 24" fill="none" xmlns="http://www.w3.org/2000/svg">
<path d="M24 21.9981C24 23.1031 23.105 23.9981 22 23.9981C21.262 23.9981 20.624 23.5931 20.277 22.9981H19C17.346 22.9981 16 21.6521 16 19.9981V14.9981C16 14.4451 16.448 13.9981 17 13.9981C17.552 13.9981 18 14.4451 18 14.9981V19.9981C18 20.5501 18.449 20.9981 19 20.9981H20.277C20.623 20.4031 21.261 19.9981 22 19.9981C23.105 19.9981 24 20.8931 24 21.9981ZM13 20.2751V14.9981C13 14.4451 12.552 13.9981 12 13.9981C11.448 13.9981 11 14.4451 11 14.9981V20.2751C10.405 20.6211 10 21.2591 10 21.9981C10 23.1031 10.895 23.9981 12 23.9981C13.105 23.9981 14 23.1031 14 21.9981C14 21.2601 13.595 20.6221 13 20.2751ZM7 13.9981C6.448 13.9981 6 14.4451 6 14.9981V19.9981C6 20.5501 5.551 20.9981 5 20.9981H3.723C3.377 20.4031 2.739 19.9981 2 19.9981C0.895 19.9981 0 20.8931 0 21.9981C0 23.1031 0.895 23.9981 2 23.9981C2.738 23.9981 3.376 23.5931 3.723 22.9981H5C6.654 22.9981 8 21.6521 8 19.9981V14.9981C8 14.4451 7.552 13.9981 7 13.9981ZM21 11.4521C21 12.4311 20.713 13.3761 20.17 14.1841C19.862 14.6431 19.984 15.2641 20.442 15.5721C20.901 15.8821 21.523 15.7571 21.83 15.3001C22.595 14.1601 22.999 12.8301 22.999 11.4521C22.999 8.16806 20.665 5.31906 17.448 4.67806C17.175 4.62306 16.952 4.45306 16.838 4.21006C15.411 1.19906 12.107 -0.481936 8.799 0.125064C5.787 0.676064 3.425 3.08106 2.922 6.10906C2.774 7.00306 2.784 7.89706 2.952 8.76806C3 9.01706 2.891 9.29806 2.667 9.50206C1.607 10.4651 1 11.8381 1 13.2701C1 14.5251 1.46 15.7311 2.297 16.6651C2.495 16.8861 2.768 16.9981 3.043 16.9981C3.28 16.9981 3.519 16.9141 3.71 16.7431C4.122 16.3751 4.156 15.7421 3.788 15.3311C3.28 14.7651 3.001 14.0321 3.001 13.2701C3.001 12.4011 3.37 11.5671 4.014 10.9831C4.751 10.3121 5.097 9.31806 4.918 8.38706C4.794 7.75106 4.788 7.09506 4.897 6.43706C5.257 4.27206 7.01 2.48506 9.161 2.09106C11.611 1.64606 13.975 2.83706 15.033 5.06706C15.422 5.88606 16.16 6.46006 17.059 6.63806C19.343 7.09406 21.001 9.11806 21.001 11.4511L21 11.4521Z" fill="#6F6B6B"/>
</svg>
