<svg width="22" height="24" viewBox="0 0 22 24" fill="none" xmlns="http://www.w3.org/2000/svg">
<path d="M18.7 8.424V7C18.7 5.14348 17.8888 3.36301 16.4447 2.05025C15.0007 0.737498 13.0422 0 11 0C8.95783 0 6.99931 0.737498 5.55528 2.05025C4.11125 3.36301 3.3 5.14348 3.3 7V8.424C2.3203 8.81271 1.48642 9.45252 0.900349 10.2652C0.314276 11.0779 0.00140621 12.0282 0 13V19C0.00174664 20.3256 0.58177 21.5964 1.61284 22.5338C2.64391 23.4711 4.04185 23.9984 5.5 24H16.5C17.9582 23.9984 19.3561 23.4711 20.3872 22.5338C21.4182 21.5964 21.9983 20.3256 22 19V13C21.9986 12.0282 21.6857 11.0779 21.0997 10.2652C20.5136 9.45252 19.6797 8.81271 18.7 8.424ZM5.5 7C5.5 5.67392 6.07946 4.40215 7.11091 3.46447C8.14236 2.52678 9.54131 2 11 2C12.4587 2 13.8576 2.52678 14.8891 3.46447C15.9205 4.40215 16.5 5.67392 16.5 7V8H5.5V7ZM19.8 19C19.8 19.7956 19.4523 20.5587 18.8335 21.1213C18.2146 21.6839 17.3752 22 16.5 22H5.5C4.62479 22 3.78542 21.6839 3.16655 21.1213C2.54768 20.5587 2.2 19.7956 2.2 19V13C2.2 12.2044 2.54768 11.4413 3.16655 10.8787C3.78542 10.3161 4.62479 10 5.5 10H16.5C17.3752 10 18.2146 10.3161 18.8335 10.8787C19.4523 11.4413 19.8 12.2044 19.8 13V19Z" fill="#6F6B6B"/>
<path d="M11 14C10.7083 14 10.4285 14.1054 10.2222 14.2929C10.0159 14.4804 9.90002 14.7348 9.90002 15V17C9.90002 17.2652 10.0159 17.5196 10.2222 17.7071C10.4285 17.8946 10.7083 18 11 18C11.2918 18 11.5716 17.8946 11.7778 17.7071C11.9841 17.5196 12.1 17.2652 12.1 17V15C12.1 14.7348 11.9841 14.4804 11.7778 14.2929C11.5716 14.1054 11.2918 14 11 14Z" fill="#6F6B6B"/>
</svg>
