<svg width="28" height="28" viewBox="0 0 28 28" fill="none" xmlns="http://www.w3.org/2000/svg">
<path d="M18.6659 16.3338C17.7384 16.3338 17.5564 17.1388 17.5506 17.1586C17.2064 18.2797 14.3622 19.8337 9.91625 19.8337C5.28711 19.8337 2.33324 18.1071 2.33324 16.9171V14.6912C4.24649 15.775 7.08954 16.3338 9.91625 16.3338C10.1227 16.3338 10.3281 16.3303 10.5311 16.3257C11.175 16.3082 11.6825 15.7715 11.6662 15.1275C11.6487 14.4836 11.1365 13.9469 10.4692 13.9924C10.2872 13.9971 10.1029 13.9994 9.91742 13.9994C5.01063 13.9994 2.3344 12.2927 2.3344 11.4165V8.85813C4.24766 9.94192 7.09071 10.5007 9.91742 10.5007C10.1239 10.5007 10.3292 10.4984 10.5322 10.4926C11.1762 10.4751 11.6837 9.93959 11.6673 9.29561C11.6498 8.65164 11.1377 8.115 10.4704 8.16049C10.2884 8.16516 10.1041 8.16749 9.91859 8.16749C5.01179 8.16749 2.33557 6.46073 2.33557 5.5846V4.91846C2.33557 4.04233 5.01179 2.33557 9.91859 2.33557C10.6676 2.33557 11.406 2.37873 12.1142 2.46273C12.7523 2.52806 13.3344 2.08125 13.4103 1.44194C13.4861 0.802633 13.0288 0.221657 12.3895 0.145827C6.89705 -0.508646 0 1.13979 0 4.9173V23.0839C0 26.3119 4.98846 28 9.91625 28C14.844 28 19.8325 26.3119 19.8325 23.0839V17.5004C19.8325 17.4794 19.773 16.3338 18.6659 16.3338ZM9.91625 25.6668C5.00946 25.6668 2.33324 23.96 2.33324 23.0839V20.3692C4.12399 21.4821 6.80722 22.1669 9.91625 22.1669C12.9798 22.1669 15.6782 21.5043 17.4993 20.4111V23.0839C17.4993 23.96 14.823 25.6668 9.91625 25.6668ZM27.9988 1.42444V4.99429C27.9988 5.45861 27.6232 5.83426 27.1589 5.83426H26.3504H26.3481C26.3469 5.83426 26.3457 5.83426 26.3446 5.83426H23.5902C23.2507 5.83426 22.9439 5.6301 22.8144 5.31628C22.6837 5.00246 22.7561 4.64081 22.9964 4.40048L23.9787 3.41819C23.1562 2.73572 22.1121 2.3344 21.0003 2.3344C19.1442 2.3344 17.4654 3.43336 16.7211 5.13429C16.4645 5.72343 15.782 5.99525 15.1859 5.73626C14.5956 5.47844 14.3261 4.79013 14.5839 4.19983C15.6992 1.64843 18.2179 0 21.0003 0C22.7432 0 24.3823 0.647473 25.6388 1.75693L26.5662 0.828299C26.8066 0.587976 27.167 0.516812 27.482 0.646306C27.7958 0.775801 28 1.08262 28 1.42211L27.9988 1.42444ZM27.4155 9.80193C26.3014 12.3533 23.7827 14.0018 20.9991 14.0018C19.2562 14.0018 17.6171 13.3543 16.3607 12.2448L15.4332 13.1723C15.1929 13.4126 14.8324 13.4838 14.5174 13.3543C14.2036 13.2248 13.9994 12.918 13.9994 12.5785V9.00863C13.9994 8.54431 14.3751 8.16866 14.8394 8.16866H18.4092C18.7487 8.16866 19.0555 8.37282 19.185 8.68664C19.3157 9.00046 19.2434 9.36211 19.003 9.60243L18.0208 10.5847C18.8432 11.2672 19.8873 11.6685 20.9991 11.6685C22.8552 11.6685 24.534 10.5696 25.2783 8.86863C25.5361 8.28065 26.2186 8.01117 26.8135 8.26666C27.4039 8.52448 27.6733 9.21278 27.4155 9.80309V9.80193Z" fill="#6F6B6B"/>
</svg>
