<svg width="37" height="28" viewBox="0 0 37 28" fill="none" xmlns="http://www.w3.org/2000/svg">
<path d="M33.1617 2.30051C32.6341 2.31564 31.7622 2.34727 31.1133 2.80802C30.6921 3.10785 30.4267 3.51908 30.3087 4.0541H22.9016C22.7819 2.90842 22.3378 2.06395 21.5496 1.48905C20.7466 0.903141 19.6355 0.625318 18.0574 0.617065C16.5186 0.643197 15.3699 0.875634 14.5538 1.45466C13.7442 2.03094 13.2838 2.88642 13.1543 4.0541H5.74882C5.49973 2.89742 4.55253 2.30876 2.9269 2.30051C2.31237 2.29363 1.52413 2.34727 0.876829 2.80802C0.293436 3.222 0.00665536 3.85055 0.000100378 4.72803C-0.0113708 6.34821 0.960405 7.1748 2.88921 7.18443H2.93509C3.50374 7.18443 4.30836 7.12666 4.93928 6.67692C5.36043 6.37709 5.62591 5.96586 5.7439 5.42946H12.2022C9.11971 7.01938 7.08931 9.78387 6.80253 12.8853C6.64521 14.6045 6.52722 17.3291 6.51083 19.5572C4.97697 19.6411 3.78724 19.9175 3.72824 19.9313C3.45785 19.9946 3.24645 20.1692 3.16615 20.3948C3.14649 20.4498 2.68764 21.7427 2.68764 23.4577C2.68764 25.1852 3.14649 26.467 3.16615 26.522C3.24645 26.7462 3.45785 26.9195 3.7266 26.9828C3.79543 26.9993 5.4309 27.3816 7.35642 27.3816C9.28195 27.3816 10.9174 26.9993 10.9862 26.9828C11.255 26.9195 11.4664 26.7449 11.5483 26.5193C11.568 26.4643 12.0268 25.1714 12.0268 23.4577C12.0268 21.7303 11.568 20.4471 11.5483 20.3934C11.468 20.1692 11.255 19.9959 10.9879 19.9327C10.9289 19.9189 9.71294 19.6356 8.14958 19.5558C8.16596 17.3594 8.28231 14.6815 8.43636 12.9926C8.69036 10.2309 10.5569 7.78134 13.3673 6.44998C14.0982 8.56392 16.2777 8.85962 17.9952 8.86787H18.064C19.6028 8.86787 20.6942 8.60105 21.4971 8.03028C22.0527 7.63555 22.4411 7.11016 22.6738 6.44448C25.4924 7.77583 27.3622 10.224 27.6162 12.994C27.7703 14.6733 27.885 17.3511 27.9014 19.5558C26.3396 19.6356 25.1221 19.9189 25.0631 19.9327C24.7943 19.9959 24.5813 20.1706 24.501 20.3962C24.4813 20.4512 24.0225 21.744 24.0225 23.4591C24.0225 25.1866 24.4813 26.4684 24.501 26.5234C24.5829 26.7476 24.7943 26.9209 25.0631 26.9842C25.1319 27.0007 26.7657 27.383 28.6929 27.383C30.62 27.383 32.2555 27.0007 32.3243 26.9842C32.5931 26.9209 32.8061 26.7462 32.8864 26.5207C32.9061 26.4657 33.3649 25.1728 33.3649 23.4591C33.3649 21.7317 32.9061 20.4484 32.8864 20.3948C32.8045 20.1706 32.5931 19.9973 32.3243 19.934C32.2653 19.9203 31.0772 19.6438 29.5417 19.5599C29.5254 17.3222 29.409 14.599 29.2517 12.8881C28.9665 9.78249 26.9394 7.02076 23.8553 5.43084H30.307C30.4201 5.95485 30.6758 6.35921 31.0854 6.65766C31.7246 7.12391 32.557 7.18168 33.129 7.18443H33.1634C35.0676 7.18443 36.041 6.36884 36.0541 4.75829C36.0656 3.13811 35.0905 2.31151 33.1617 2.30051ZM10.3897 23.4577C10.3897 24.4494 10.2128 25.2911 10.0915 25.7491C9.52284 25.8522 8.48552 26.0063 7.35806 26.0063C6.23061 26.0063 5.19 25.8522 4.62464 25.7491C4.50337 25.2925 4.32802 24.4562 4.32802 23.4577C4.32802 22.4661 4.50501 21.6244 4.62628 21.165C5.19492 21.0618 6.23224 20.9092 7.3597 20.9092C8.48716 20.9092 9.52776 21.0618 10.0948 21.165C10.216 21.6216 10.3897 22.4578 10.3897 23.4577ZM31.7278 23.4577C31.7278 24.4494 31.5508 25.2911 31.4296 25.7491C30.8609 25.8522 29.8236 26.0063 28.6945 26.0063C27.5654 26.0063 26.5281 25.8522 25.9611 25.7491C25.8398 25.2925 25.6628 24.4576 25.6628 23.4577C25.6628 22.4661 25.8398 21.6244 25.9611 21.165C26.5297 21.0618 27.5654 20.9092 28.6945 20.9092C29.8236 20.9092 30.8626 21.0618 31.4296 21.165C31.5508 21.6216 31.7278 22.4578 31.7278 23.4577ZM3.87901 5.62752C3.70694 5.74992 3.371 5.80631 2.89904 5.80906C1.94693 5.80356 1.63229 5.64815 1.63721 4.73628C1.64048 4.29066 1.74045 3.99496 1.93382 3.85742C2.10261 3.73777 2.42216 3.67587 2.88429 3.67587H2.91379C3.8659 3.68138 4.18054 3.83679 4.17562 4.74866C4.17234 5.19428 4.07238 5.48998 3.87901 5.62752ZM21.2972 4.75966C21.289 5.84895 21.0088 6.57514 20.4402 6.98087C19.9387 7.33572 19.1177 7.46775 18.0066 7.49251C15.9352 7.48151 14.739 7.02626 14.7554 4.72528C14.7635 3.63599 15.0438 2.9098 15.6141 2.50406C16.104 2.1561 16.8562 1.99243 17.982 1.99243H18.0476C19.2127 1.99793 19.9846 2.16848 20.4746 2.52607C21.0367 2.93593 21.3054 3.66762 21.2972 4.75966ZM33.1781 5.80906H33.1371C32.657 5.80631 32.3276 5.74305 32.1588 5.61926C31.9212 5.44734 31.8737 5.04436 31.877 4.73628C31.8802 4.29066 31.9786 3.99496 32.1736 3.85742C32.344 3.73777 32.6619 3.67587 33.124 3.67587H33.1535C34.1056 3.68138 34.4203 3.83679 34.4154 4.74866C34.4072 5.63989 34.0827 5.80906 33.1781 5.80906Z" fill="#031C41"/>
</svg>
