<svg width="29" height="29" viewBox="0 0 29 29" fill="none" xmlns="http://www.w3.org/2000/svg">
<path fill-rule="evenodd" clip-rule="evenodd" d="M5.4375 1.8125C3.99539 1.8125 2.61234 2.38538 1.59261 3.40511C0.572878 4.42484 0 5.80789 0 7.25L0 27.6406C0.000236327 27.9093 0.0800903 28.1719 0.229476 28.3952C0.378863 28.6186 0.59108 28.7926 0.839326 28.8954C1.08757 28.9982 1.36071 29.0251 1.62425 28.9727C1.88778 28.9204 2.12989 28.7911 2.32 28.6012L7.36419 23.5625H23.5625C25.0046 23.5625 26.3877 22.9896 27.4074 21.9699C28.4271 20.9502 29 19.5671 29 18.125V7.25C29 5.80789 28.4271 4.42484 27.4074 3.40511C26.3877 2.38538 25.0046 1.8125 23.5625 1.8125H5.4375ZM2.71875 7.25C2.71875 6.52894 3.00519 5.83742 3.51505 5.32755C4.02492 4.81769 4.71644 4.53125 5.4375 4.53125H23.5625C24.2836 4.53125 24.9751 4.81769 25.4849 5.32755C25.9948 5.83742 26.2812 6.52894 26.2812 7.25V18.125C26.2812 18.8461 25.9948 19.5376 25.4849 20.0474C24.9751 20.5573 24.2836 20.8438 23.5625 20.8438H6.24044L5.84169 21.2425L2.71875 24.36V7.25ZM19.9375 14.5C20.4182 14.5 20.8792 14.309 21.2191 13.9691C21.559 13.6292 21.75 13.1682 21.75 12.6875C21.75 12.2068 21.559 11.7458 21.2191 11.4059C20.8792 11.066 20.4182 10.875 19.9375 10.875C19.4568 10.875 18.9958 11.066 18.6559 11.4059C18.316 11.7458 18.125 12.2068 18.125 12.6875C18.125 13.1682 18.316 13.6292 18.6559 13.9691C18.9958 14.309 19.4568 14.5 19.9375 14.5ZM16.3125 12.6875C16.3125 13.1682 16.1215 13.6292 15.7816 13.9691C15.4417 14.309 14.9807 14.5 14.5 14.5C14.0193 14.5 13.5583 14.309 13.2184 13.9691C12.8785 13.6292 12.6875 13.1682 12.6875 12.6875C12.6875 12.2068 12.8785 11.7458 13.2184 11.4059C13.5583 11.066 14.0193 10.875 14.5 10.875C14.9807 10.875 15.4417 11.066 15.7816 11.4059C16.1215 11.7458 16.3125 12.2068 16.3125 12.6875ZM9.0625 14.5C9.54321 14.5 10.0042 14.309 10.3441 13.9691C10.684 13.6292 10.875 13.1682 10.875 12.6875C10.875 12.2068 10.684 11.7458 10.3441 11.4059C10.0042 11.066 9.54321 10.875 9.0625 10.875C8.58179 10.875 8.12078 11.066 7.78087 11.4059C7.44096 11.7458 7.25 12.2068 7.25 12.6875C7.25 13.1682 7.44096 13.6292 7.78087 13.9691C8.12078 14.309 8.58179 14.5 9.0625 14.5Z" fill="#0056D2"/>
</svg>
