<svg width="19" height="20" viewBox="0 0 19 20" fill="none" xmlns="http://www.w3.org/2000/svg">
<path d="M18.2771 2.77603C18.2445 1.79507 17.4235 0.971986 16.445 0.939287L3.92014 0.520737C2.94164 0.488038 2.17358 1.25802 2.2062 2.23898C2.23882 3.21993 3.05985 4.04302 4.03835 4.07572L12.2929 4.34764L0.684964 15.9846C0.015278 16.656 0.0525914 17.7782 0.768464 18.4959C1.48434 19.2135 2.60374 19.251 3.27343 18.5796L14.8775 6.94639L15.1564 15.214C15.189 16.195 16.01 17.018 16.9885 17.0507C17.967 17.0834 18.7351 16.3135 18.7025 15.3325L18.2849 2.77629L18.2771 2.77603Z" fill="#FFA600"/>
</svg>
