<svg width="23" height="22" viewBox="0 0 23 22" fill="none" xmlns="http://www.w3.org/2000/svg">
<path d="M22.3296 2.89802C22.3298 1.79335 21.3882 0.896562 20.2283 0.896808L5.38153 0.899964C4.22163 0.900211 3.27958 1.7974 3.27932 2.90207C3.27906 4.00674 4.22069 4.90353 5.3806 4.90329L15.1655 4.89679L0.928032 18.4563C0.106637 19.2386 0.106341 20.5023 0.927369 21.2843C1.7484 22.0662 3.07532 22.0659 3.89672 21.2836L18.1296 7.72853L18.132 17.0387C18.1318 18.1434 19.0734 19.0401 20.2333 19.0399C21.3932 19.0397 22.3353 18.1425 22.3355 17.0378L22.3388 2.89802L22.3296 2.89802Z" fill="white"/>
</svg>
