<svg width="22" height="24" viewBox="0 0 22 24" fill="none" xmlns="http://www.w3.org/2000/svg">
<path d="M15.5834 24C14.3143 24 13.0737 23.5895 12.0185 22.8203C10.9633 22.0511 10.1408 20.9579 9.65519 19.6788C9.16953 18.3997 9.04246 16.9922 9.29005 15.6344C9.53763 14.2765 10.1488 13.0292 11.0461 12.0503C11.9435 11.0713 13.0869 10.4046 14.3316 10.1345C15.5763 9.86441 16.8664 10.003 18.0389 10.5328C19.2114 11.0627 20.2135 11.9599 20.9186 13.111C21.6237 14.2622 22 15.6155 22 17C21.9981 18.8559 21.3214 20.6351 20.1185 21.9474C18.9155 23.2597 17.2846 23.9979 15.5834 24ZM15.5834 12C14.6769 12 13.7907 12.2932 13.037 12.8427C12.2833 13.3921 11.6959 14.173 11.349 15.0866C11.0021 16.0002 10.9113 17.0055 11.0881 17.9755C11.265 18.9454 11.7015 19.8363 12.3425 20.5355C12.9835 21.2348 13.8001 21.711 14.6892 21.9039C15.5783 22.0969 16.4998 21.9978 17.3373 21.6194C18.1748 21.241 18.8906 20.6001 19.3943 19.7779C19.8979 18.9556 20.1667 17.9889 20.1667 17C20.1652 15.6744 19.6819 14.4036 18.8227 13.4662C17.9634 12.5289 16.7985 12.0016 15.5834 12ZM17.1481 18.707C17.32 18.5195 17.4165 18.2652 17.4165 18C17.4165 17.7348 17.32 17.4805 17.1481 17.293L16.5 16.586V15C16.5 14.7348 16.4035 14.4804 16.2316 14.2929C16.0596 14.1054 15.8265 14 15.5834 14C15.3403 14 15.1071 14.1054 14.9352 14.2929C14.7633 14.4804 14.6667 14.7348 14.6667 15V17C14.6668 17.2652 14.7634 17.5195 14.9353 17.707L15.852 18.707C16.0239 18.8945 16.257 18.9998 16.5 18.9998C16.7431 18.9998 16.9762 18.8945 17.1481 18.707ZM1.83347 23C1.83578 21.1626 2.39692 19.3779 3.42891 17.9258C4.46091 16.4737 5.90542 15.4362 7.53601 14.976C7.6535 14.947 7.7646 14.893 7.86296 14.8171C7.96133 14.7413 8.04503 14.645 8.1093 14.5339C8.17356 14.4227 8.21713 14.2988 8.23751 14.1693C8.2579 14.0398 8.25469 13.9072 8.22809 13.779C8.20149 13.6508 8.152 13.5296 8.08247 13.4223C8.01293 13.315 7.92469 13.2237 7.8228 13.1536C7.72092 13.0835 7.60737 13.036 7.48864 13.0137C7.36992 12.9915 7.24834 12.995 7.13085 13.024C5.08765 13.5709 3.27287 14.8527 1.97919 16.6626C0.685516 18.4725 -0.011644 20.705 0.000147146 23C0.000147146 23.2652 0.0967236 23.5196 0.268631 23.7071C0.440538 23.8946 0.673694 24 0.916808 24C1.15992 24 1.39308 23.8946 1.56498 23.7071C1.73689 23.5196 1.83347 23.2652 1.83347 23ZM7.76793 11C6.77079 11 5.79604 10.6774 4.96695 10.0731C4.13786 9.46874 3.49166 8.60975 3.11007 7.60476C2.72848 6.59977 2.62864 5.4939 2.82317 4.42701C3.0177 3.36011 3.49787 2.3801 4.20296 1.61092C4.90804 0.841726 5.80637 0.317902 6.78436 0.105683C7.76234 -0.106535 8.77604 0.00238308 9.69728 0.418665C10.6185 0.834947 11.4059 1.5399 11.9599 2.44437C12.5139 3.34884 12.8096 4.4122 12.8096 5.5C12.8081 6.95821 12.2765 8.35623 11.3313 9.38733C10.3861 10.4184 9.10461 10.9984 7.76793 11ZM7.76793 2C7.13338 2 6.51309 2.20527 5.98549 2.58986C5.45788 2.97444 5.04666 3.52107 4.80384 4.16061C4.56101 4.80015 4.49747 5.50388 4.62126 6.18282C4.74506 6.86175 5.05062 7.48539 5.49931 7.97488C5.948 8.46436 6.51967 8.7977 7.14202 8.93275C7.76437 9.0678 8.40945 8.99849 8.9957 8.73358C9.58194 8.46867 10.083 8.02007 10.4355 7.4445C10.7881 6.86893 10.9762 6.19224 10.9762 5.5C10.9762 4.57174 10.6382 3.68151 10.0365 3.02513C9.43487 2.36875 8.61883 2 7.76793 2Z" fill="#6F6B6B"/>
</svg>
