<svg width="46" height="46" viewBox="0 0 46 46" fill="none" xmlns="http://www.w3.org/2000/svg">
<rect width="46" height="46" rx="23" fill="#FFA600" fill-opacity="0.5"/>
<path d="M32.7663 31.5889L27.7962 26.6188C29.1506 24.9623 29.8165 22.8487 29.6562 20.715C29.4959 18.5813 28.5216 16.5908 26.9349 15.1553C25.3482 13.7198 23.2704 12.9491 21.1314 13.0026C18.9923 13.0561 16.9557 13.9297 15.4427 15.4427C13.9297 16.9557 13.0561 18.9923 13.0026 21.1314C12.9491 23.2704 13.7198 25.3482 15.1553 26.9349C16.5908 28.5216 18.5813 29.4959 20.715 29.6562C22.8487 29.8165 24.9623 29.1506 26.6188 27.7962L31.5889 32.7663C31.7459 32.9179 31.9563 33.0019 32.1746 33C32.3929 32.9981 32.6017 32.9105 32.7561 32.7561C32.9105 32.6017 32.9981 32.3929 33 32.1746C33.0019 31.9563 32.9179 31.7459 32.7663 31.5889ZM21.3531 28.0143C20.0357 28.0143 18.7478 27.6237 17.6524 26.8917C16.557 26.1598 15.7032 25.1194 15.199 23.9023C14.6948 22.6851 14.5629 21.3458 14.8199 20.0536C15.077 18.7615 15.7114 17.5746 16.643 16.643C17.5746 15.7114 18.7615 15.077 20.0536 14.8199C21.3458 14.5629 22.6851 14.6948 23.9023 15.199C25.1194 15.7032 26.1598 16.557 26.8917 17.6524C27.6237 18.7478 28.0143 20.0357 28.0143 21.3531C28.0124 23.1192 27.3099 24.8123 26.0611 26.0611C24.8123 27.3099 23.1192 28.0124 21.3531 28.0143Z" fill="white"/>
</svg>
