<svg width="91" height="90" viewBox="0 0 91 90" fill="none" xmlns="http://www.w3.org/2000/svg">
<rect x="0.5" width="90" height="90" rx="4" fill="#00CBB8" fill-opacity="0.3"/>
<path d="M49.25 49.9375C49.25 50.4648 48.7812 50.875 48.3125 50.875H42.6875C42.1602 50.875 41.75 50.4648 41.75 49.9375V47.125H30.5V55.5625C30.5 57.0859 31.7891 58.375 33.3125 58.375H57.6875C59.1523 58.375 60.5 57.0859 60.5 55.5625V47.125H49.25V49.9375ZM57.6875 37.75H53V34.9375C53 33.4727 51.6523 32.125 50.1875 32.125H40.8125C39.2891 32.125 38 33.4727 38 34.9375V37.75H33.3125C31.7891 37.75 30.5 39.0977 30.5 40.5625V45.25H60.5V40.5625C60.5 39.0977 59.1523 37.75 57.6875 37.75ZM49.25 37.75H41.75V35.875H49.25V37.75Z" fill="#00CBB8"/>
</svg>
