<svg width="91" height="90" viewBox="0 0 91 90" fill="none" xmlns="http://www.w3.org/2000/svg">
<rect x="0.5" width="90" height="90" rx="4" fill="#49BBBD" fill-opacity="0.3"/>
<path d="M40.2852 48.4141C37.8828 48.5312 35.7734 49.4688 34.543 52.6328C34.4258 52.9844 34.0742 53.2188 33.7227 53.2188C33.0781 53.2188 31.0273 51.5781 30.4414 51.2266C30.5 56.0312 32.668 60.25 38 60.25C42.3945 60.25 45.5 57.7305 45.5 53.2188C45.5 53.043 45.4414 52.8672 45.4414 52.6914L40.2852 48.4141ZM57.2773 30.25C56.3984 30.25 55.5781 30.6602 54.9336 31.2461C42.9805 41.9688 41.75 42.2031 41.75 45.3672C41.75 46.1289 41.9258 46.8906 42.2188 47.5938L45.9688 50.6992C46.3789 50.8164 46.8477 50.875 47.2578 50.875C50.9492 50.875 53.0586 48.2383 59.6797 35.875C60.0898 35.0547 60.5 34.1172 60.5 33.1797C60.5 31.4805 58.9766 30.25 57.2773 30.25Z" fill="#49BBBD"/>
</svg>
