<svg width="91" height="90" viewBox="0 0 91 90" fill="none" xmlns="http://www.w3.org/2000/svg">
<rect x="0.5" width="90" height="90" rx="4" fill="#5B72EE" fill-opacity="0.3"/>
<path d="M59.4375 30.25H31.3125C29.7305 30.25 28.5 31.5391 28.5 33.0625V51.8125C28.5 53.3945 29.7305 54.625 31.3125 54.625H42.5625L41.625 57.4375H37.4062C36.5859 57.4375 36 58.082 36 58.8438C36 59.6641 36.5859 60.25 37.4062 60.25H53.3438C54.1055 60.25 54.75 59.6641 54.75 58.8438C54.75 58.082 54.1055 57.4375 53.3438 57.4375H49.125L48.1875 54.625H59.4375C60.9609 54.625 62.25 53.3945 62.25 51.8125V33.0625C62.25 31.5391 60.9609 30.25 59.4375 30.25ZM58.5 50.875H32.25V34H58.5V50.875Z" fill="#5B72EE"/>
</svg>
