<svg width="47" height="46" viewBox="0 0 47 46" fill="none" xmlns="http://www.w3.org/2000/svg">
<rect x="0.5" width="46" height="46" rx="23" fill="#0075FD"/>
<path d="M36.1961 34.1656L29.735 27.7045C31.4958 25.551 32.3615 22.8033 32.153 20.0295C31.9446 17.2557 30.6781 14.6681 28.6153 12.8019C26.5526 10.9358 23.8515 9.93386 21.0708 10.0034C18.29 10.0729 15.6424 11.2086 13.6755 13.1755C11.7086 15.1424 10.5729 17.79 10.5034 20.5708C10.4339 23.3515 11.4358 26.0526 13.3019 28.1153C15.1681 30.1781 17.7557 31.4446 20.5295 31.653C23.3033 31.8615 26.051 30.9958 28.2045 29.235L34.6656 35.6961C34.8697 35.8933 35.1432 36.0024 35.427 36C35.7108 35.9975 35.9823 35.8837 36.183 35.683C36.3837 35.4823 36.4975 35.2108 36.5 34.927C36.5024 34.6432 36.3933 34.3697 36.1961 34.1656ZM21.3591 29.5186C19.6464 29.5186 17.9722 29.0108 16.5481 28.0592C15.124 27.1077 14.0141 25.7553 13.3587 24.173C12.7033 22.5906 12.5318 20.8495 12.8659 19.1697C13.2001 17.4899 14.0248 15.9469 15.2359 14.7359C16.4469 13.5248 17.9899 12.7001 19.6697 12.3659C21.3495 12.0318 23.0906 12.2033 24.673 12.8587C26.2553 13.5141 27.6077 14.624 28.5592 16.0481C29.5108 17.4722 30.0186 19.1464 30.0186 20.8591C30.0161 23.155 29.1029 25.356 27.4795 26.9795C25.856 28.6029 23.655 29.5161 21.3591 29.5186Z" fill="white"/>
</svg>

