<svg width="24" height="24" viewBox="0 0 24 24" fill="none" xmlns="http://www.w3.org/2000/svg">
<path d="M24 7V5H22C22 3.346 20.654 2 19 2V0H17V2H15V0H13V2H11V0H9V2H7V0H5V2C3.346 2 2 3.346 2 5H0V7H2V9H0V11H2V13H0V15H2V17H0V19H2V22H5V24H7V22H9V24H11V22H13V24H15V22H17V24H19V22H22V19H24V17H22V15H24V13H22V11H24V9H22V7H24ZM20 20H4V5C4 4.448 4.449 4 5 4H19C19.551 4 20 4.448 20 5V20ZM10.876 7.18C9.563 6.63 8.225 7.401 7.939 8.638L6 17H8.053L8.285 16H11.715L11.947 17H14L12.078 8.709C11.924 8.047 11.503 7.443 10.876 7.181V7.18ZM8.749 14L9.887 9.09C9.899 9.037 9.946 9 10 9C10.054 9 10.101 9.037 10.113 9.09L11.251 14H8.749ZM15 7H17V17H15V7Z" fill="#6F6B6B"/>
</svg>
