<svg width="22" height="24" viewBox="0 0 22 24" fill="none" xmlns="http://www.w3.org/2000/svg">
<path d="M15.5798 0C15.3368 0 15.1037 0.105357 14.9318 0.292893C14.7599 0.48043 14.6634 0.734784 14.6634 1C14.6634 3.949 12.2961 5 10.0811 5H3.66584C2.6936 5 1.76118 5.42143 1.0737 6.17157C0.386221 6.92172 0 7.93913 0 9L0 11C0.0020017 11.5987 0.127811 12.1893 0.368053 12.7276C0.608294 13.2659 0.956773 13.7381 1.38752 14.109L4.66111 22.081C4.89393 22.6521 5.27347 23.1373 5.75378 23.4779C6.2341 23.8185 6.79459 23.9998 7.36742 24C7.82319 23.9997 8.27164 23.875 8.67197 23.6373C9.0723 23.3996 9.41178 23.0564 9.65953 22.639C9.90728 22.2215 10.0554 21.7431 10.0905 21.2473C10.1255 20.7515 10.0463 20.2539 9.86019 19.8L7.84398 15H10.0811C12.2961 15 14.6634 16.051 14.6634 19C14.6634 19.2652 14.7599 19.5196 14.9318 19.7071C15.1037 19.8946 15.3368 20 15.5798 20C15.8229 20 16.056 19.8946 16.2279 19.7071C16.3997 19.5196 16.4963 19.2652 16.4963 19V1C16.4963 0.734784 16.3997 0.48043 16.2279 0.292893C16.056 0.105357 15.8229 0 15.5798 0ZM8.1904 20.619C8.2511 20.7686 8.27663 20.9323 8.26467 21.0954C8.25272 21.2585 8.20365 21.4157 8.12191 21.5529C8.04018 21.69 7.92837 21.8027 7.79662 21.8808C7.66487 21.9589 7.51735 21.9999 7.36742 22C7.14875 21.9998 6.93483 21.9304 6.75164 21.8001C6.56845 21.6698 6.42388 21.4842 6.33549 21.266L3.76207 15H5.82777L8.1904 20.619ZM14.6634 14.6C13.354 13.4992 11.7329 12.9331 10.0811 13H3.66584C3.17972 13 2.71351 12.7893 2.36977 12.4142C2.02603 12.0391 1.83292 11.5304 1.83292 11V9C1.83292 8.46957 2.02603 7.96086 2.36977 7.58579C2.71351 7.21071 3.17972 7 3.66584 7H10.0811C11.7323 7.0683 13.3534 6.50403 14.6634 5.405V14.6ZM21.9034 15.452C21.8496 15.5696 21.7752 15.6744 21.6842 15.7606C21.5933 15.8467 21.4877 15.9125 21.3735 15.9541C21.2593 15.9957 21.1387 16.0123 21.0186 16.0031C20.8985 15.9938 20.7812 15.9588 20.6735 15.9L18.8406 14.9C18.623 14.7814 18.4576 14.5735 18.3806 14.3218C18.3036 14.0701 18.3214 13.7954 18.43 13.558C18.5387 13.3206 18.7293 13.1401 18.9599 13.0561C19.1906 12.972 19.4424 12.9914 19.6599 13.11L21.4928 14.11C21.7092 14.2285 21.8739 14.4356 21.9508 14.6861C22.0277 14.9366 22.0107 15.2102 21.9034 15.447V15.452ZM18.43 6.452C18.3762 6.33448 18.3441 6.20653 18.3356 6.07546C18.327 5.9444 18.3423 5.81279 18.3804 5.68816C18.4186 5.56353 18.4788 5.44832 18.5578 5.34912C18.6367 5.24991 18.7328 5.16866 18.8406 5.11L20.6735 4.11C20.891 3.99145 21.1428 3.97205 21.3735 4.05606C21.6041 4.14008 21.7947 4.32063 21.9034 4.558C22.012 4.79537 22.0298 5.07011 21.9528 5.32178C21.8758 5.57346 21.7104 5.78145 21.4928 5.9L19.6599 6.9C19.5522 6.95876 19.4349 6.99378 19.3148 7.00306C19.1947 7.01234 19.0741 6.99571 18.9599 6.9541C18.8456 6.9125 18.7401 6.84674 18.6491 6.76058C18.5582 6.67443 18.4838 6.56957 18.43 6.452ZM18.3292 10C18.3292 9.73478 18.4258 9.48043 18.5976 9.29289C18.7695 9.10536 19.0026 9 19.2457 9H21.0786C21.3216 9 21.5547 9.10536 21.7266 9.29289C21.8985 9.48043 21.995 9.73478 21.995 10C21.995 10.2652 21.8985 10.5196 21.7266 10.7071C21.5547 10.8946 21.3216 11 21.0786 11H19.2457C19.0026 11 18.7695 10.8946 18.5976 10.7071C18.4258 10.5196 18.3292 10.2652 18.3292 10Z" fill="#6F6B6B"/>
</svg>
