<svg width="17" height="16" viewBox="0 0 17 16" fill="none" xmlns="http://www.w3.org/2000/svg">
<path d="M9.14864 0.5625C8.98301 0.21875 8.63301 0 8.24864 0C7.86426 0 7.51739 0.21875 7.34864 0.5625L5.33926 4.69688L0.851764 5.35938C0.476764 5.41563 0.164264 5.67812 0.0486389 6.0375C-0.0669861 6.39687 0.0267638 6.79375 0.295514 7.05937L3.55176 10.2812L2.78301 14.8344C2.72051 15.2094 2.87676 15.5906 3.18614 15.8125C3.49551 16.0344 3.90489 16.0625 4.24239 15.8844L8.25176 13.7437L12.2611 15.8844C12.5986 16.0625 13.008 16.0375 13.3174 15.8125C13.6268 15.5875 13.783 15.2094 13.7205 14.8344L12.9486 10.2812L16.2049 7.05937C16.4736 6.79375 16.5705 6.39687 16.4518 6.0375C16.333 5.67812 16.0236 5.41563 15.6486 5.35938L11.158 4.69688L9.14864 0.5625Z" fill="#F4A002"/>
</svg>
