<svg width="40" height="34" viewBox="0 0 40 34" fill="none" xmlns="http://www.w3.org/2000/svg">
<path d="M10.9396 0H6.56379C2.94437 0 0 3.23928 0 7.22122V12.0354C0 16.0173 2.94437 19.2566 6.56379 19.2566H10.9396C11.6421 19.2566 12.3064 19.1027 12.9415 18.8766C12.0593 24.5459 7.5908 28.8849 2.18793 28.8849C0.978588 28.8849 0 29.9615 0 31.2919C0 32.6224 0.978588 33.699 2.18793 33.699C10.632 33.699 17.5034 26.1394 17.5034 16.8495V7.22122C17.5034 3.23928 14.5591 0 10.9396 0ZM32.8189 0H28.4431C24.8237 0 21.8793 3.23928 21.8793 7.22122V12.0354C21.8793 16.0173 24.8237 19.2566 28.4431 19.2566H32.8189C33.5214 19.2566 34.1857 19.1027 34.8207 18.8766C33.9386 24.5459 29.4701 28.8849 24.0672 28.8849C22.8579 28.8849 21.8793 29.9615 21.8793 31.2919C21.8793 32.6224 22.8579 33.699 24.0672 33.699C32.5113 33.699 39.3827 26.1394 39.3827 16.8495V7.22122C39.3827 3.23928 36.4383 0 32.8189 0Z" fill="#FFA600"/>
<path d="M13.4355 18.9535L13.5646 18.124L12.7738 18.4055C12.1742 18.619 11.5683 18.7566 10.9396 18.7566H6.56379C3.26435 18.7566 0.5 15.7871 0.5 12.0354V7.22122C0.5 3.46944 3.26435 0.5 6.56379 0.5H10.9396C14.2391 0.5 17.0034 3.46944 17.0034 7.22122V16.8495C17.0034 25.9092 10.312 33.199 2.18793 33.199C1.29857 33.199 0.5 32.3923 0.5 31.2919C0.5 30.1916 1.29857 29.3849 2.18793 29.3849C7.87787 29.3849 12.522 24.8239 13.4355 18.9535ZM35.3148 18.9535L35.4439 18.124L34.653 18.4055C34.0535 18.619 33.4476 18.7566 32.8189 18.7566H28.4431C25.1436 18.7566 22.3793 15.7871 22.3793 12.0354V7.22122C22.3793 3.46944 25.1436 0.5 28.4431 0.5H32.8189C36.1184 0.5 38.8827 3.46944 38.8827 7.22122V16.8495C38.8827 25.9092 32.1913 33.199 24.0672 33.199C23.1779 33.199 22.3793 32.3923 22.3793 31.2919C22.3793 30.1916 23.1779 29.3849 24.0672 29.3849C29.7572 29.3849 34.4013 24.8239 35.3148 18.9535Z" stroke="black" stroke-opacity="0.1"/>
</svg>
