<svg width="48" height="48" viewBox="0 0 48 48" fill="none" xmlns="http://www.w3.org/2000/svg">
<rect width="48" height="48" rx="8" fill="#DFE4F2"/>
<path d="M33.5817 19.1859C33.3517 18.3256 32.6742 17.6475 31.8133 17.4173C30.2542 17 24 17 24 17C24 17 17.7458 17 16.1858 17.4173C15.3258 17.6475 14.6483 18.3248 14.4183 19.1859C14 20.7459 14 24 14 24C14 24 14 27.2541 14.4183 28.8141C14.6483 29.6744 15.3258 30.3525 16.1867 30.5827C17.7458 31 24 31 24 31C24 31 30.2542 31 31.8142 30.5827C32.6742 30.3525 33.3517 29.6752 33.5825 28.8141C34 27.2541 34 24 34 24C34 24 34 20.7459 33.5817 19.1859ZM21.955 26.9552V21.0448L27.1817 24L21.955 26.9552Z" fill="#0056D2"/>
</svg>
